<svg width="16" height="16" viewBox="0 0 16 16" fill="none" xmlns="http://www.w3.org/2000/svg">
    <path fill-rule="evenodd" clip-rule="evenodd" d="M1.882 2h12.236C15.158 2 16 2.843 16 3.882v7.53c0 1.04-.843 1.882-1.882 1.882H1.882A1.882 1.882 0 010 11.412v-7.53C0 2.842.843 2 1.882 2zm0 .47c-.78 0-1.411.633-1.411 1.412v7.53c0 .78.632 1.411 1.411 1.411h12.236a1.41 1.41 0 001.411-1.411v-7.53a1.41 1.41 0 00-1.411-1.411H1.882z" fill="#D8DDE1"/>
    <path d="M14.1 2.5H1.9A1.4 1.4 0 00.5 3.9v7.55a1.4 1.4 0 001.4 1.4h12.2a1.4 1.4 0 001.4-1.4V3.9a1.4 1.4 0 00-1.4-1.4z" fill="#74ACDF"/>
    <path d="M15.5 6H.5v3.45h15V6z" fill="#fff"/>
    <path d="M7.937 7.686l.569 1.24s.01.024.025.017c.016-.006.006-.03.006-.03l-.474-1.28-.126.053zm.113.43c-.007.189.109.293.093.461-.015.168.078.264.1.329.02.066-.024.105-.005.114.02.01.062-.042.048-.136-.014-.093-.084-.12-.068-.326.017-.206-.084-.253-.06-.441" fill="#F6B40E"/>
    <path fill-rule="evenodd" clip-rule="evenodd" d="M8.07 7.62l.478 1.29a.058.058 0 01.003.015c.001.008 0 .023-.015.029-.015.006-.026-.003-.032-.01a.055.055 0 01-.008-.012V8.93l-.328-.714c.005.04.016.075.028.11v.001c.02.062.042.127.033.231a.424.424 0 00.022.2.352.352 0 00.017.039l.01.02c.008.02.015.04.019.065a.197.197 0 01-.013.113.081.081 0 01-.021.029c-.008.006-.02.01-.03.005a.02.02 0 01-.01-.011.027.027 0 010-.014l.003-.011.002-.005a.39.39 0 00.002-.008.11.11 0 00.002-.071.34.34 0 00-.029-.059c-.01-.02-.023-.041-.034-.066a.404.404 0 01-.037-.209.476.476 0 00-.043-.218.593.593 0 01-.05-.242h.022a.574.574 0 00.049.234.51.51 0 01.045.228.382.382 0 00.034.198.745.745 0 00.034.064l.002.005a.36.36 0 01.028.058.132.132 0 01-.001.085l-.003.009L8.247 9a.073.073 0 00-.002.009.016.016 0 00.004-.003.06.06 0 00.015-.021.175.175 0 00.01-.1.221.221 0 00-.017-.058.967.967 0 00-.027-.06.446.446 0 01-.023-.21.504.504 0 00-.032-.223.469.469 0 01-.031-.171l-.222-.484.148-.06zm.096.54c0-.014.002-.027.004-.042l-.022-.002v.002l-.196-.426.105-.043.47 1.268a.034.034 0 01.002.01c0 .005 0 .006-.002.006m-.36-.774l.35.763a.051.051 0 00.004.008c.004.004.005.004.006.003" fill="#85340A"/>
    <path d="M8.086 8.148c.01.181.112.262.092.427.044-.13-.063-.232-.057-.425l-.035-.002zm-.118-.473l.39.852-.326-.878" fill="#85340A"/>
    <path d="M7.96 7.717l1 .928s.018.018.03.006c.012-.012-.006-.03-.006-.03l-.928-1-.097.096zm.268.354c.066.177.213.229.263.39.05.161.173.214.217.266.045.053.02.106.04.107.022.001.04-.063-.007-.143-.049-.081-.125-.08-.188-.276s-.175-.202-.224-.385" fill="#F6B40E"/>
    <path fill-rule="evenodd" clip-rule="evenodd" d="M8.056 7.604l.936 1.01a.052.052 0 01.01.012c.003.008.007.022-.004.033-.011.011-.025.007-.033.003a.055.055 0 01-.012-.008l-.001-.001-.575-.534c.02.036.043.063.067.091l.001.001c.042.049.086.1.119.2a.424.424 0 00.096.177l.03.03.018.015c.015.015.03.03.042.052.025.042.033.08.032.109a.081.081 0 01-.01.035c-.004.009-.013.017-.024.016a.02.02 0 01-.014-.007.027.027 0 01-.005-.012.095.095 0 01-.002-.016V8.8a.11.11 0 00-.027-.066.34.34 0 00-.044-.039l-.005-.004a.9.9 0 01-.057-.048.404.404 0 01-.113-.179.476.476 0 00-.124-.184v-.001c-.051-.055-.106-.113-.14-.204l.022-.007a.574.574 0 00.135.196c.05.056.102.11.128.194.024.078.066.13.108.169.019.018.038.033.055.047a.942.942 0 01.052.046.13.13 0 01.031.079l.001.01a.418.418 0 00.001.013l.003-.004a.06.06 0 00.007-.026.175.175 0 00-.029-.096.22.22 0 00-.039-.047.947.947 0 00-.016-.015l-.032-.03a.446.446 0 01-.102-.186c-.03-.095-.073-.144-.114-.192v-.001a.468.468 0 01-.095-.146l-.39-.361.113-.114zm.296.462a.445.445 0 01-.012-.039l-.022.006.001.003-.344-.32.08-.08.92.992h.001v.001a.032.032 0 01.006.007c.002.005 0 .006 0 .007m-.63-.577l.615.57v.001h.001a.036.036 0 00.007.006c.005.002.006 0 .007 0" fill="#85340A"/>
    <path d="M8.274 8.087c.078.164.204.198.248.359-.009-.138-.146-.19-.214-.371l-.034.012zm-.29-.392l.686.637-.637-.686" fill="#85340A"/>
    <path d="M7.978 7.722l1.28.474s.023.01.03-.006c.006-.015-.018-.025-.018-.025l-1.24-.57-.052.127zm.384.224c.128.139.284.13.392.26.108.13.241.131.303.163.061.03.057.09.077.083.02-.007.014-.073-.062-.13-.075-.056-.145-.025-.279-.182-.133-.158-.238-.12-.354-.27" fill="#F6B40E"/>
    <path fill-rule="evenodd" clip-rule="evenodd" d="M8.024 7.58l1.25.575h.002a.07.07 0 01.013.008c.006.006.015.017.009.032-.007.014-.02.016-.029.015a.055.055 0 01-.015-.003h-.001l-.736-.273a.555.555 0 00.098.058c.058.03.119.06.187.14a.424.424 0 00.157.127l.039.015.022.008c.02.008.039.017.059.032.04.029.061.061.07.088a.081.081 0 01.006.036c-.002.01-.006.02-.017.025a.02.02 0 01-.015-.001.027.027 0 01-.01-.01.095.095 0 01-.008-.014l-.004-.008a.11.11 0 00-.05-.051.34.34 0 00-.056-.02l-.005-.002a.898.898 0 01-.071-.022.404.404 0 01-.174-.122.476.476 0 00-.184-.124H8.56a.593.593 0 01-.206-.135l.016-.015a.574.574 0 00.2.13c.068.032.137.063.192.13a.382.382 0 00.165.115c.024.01.048.016.07.022l.005.002a.36.36 0 01.06.02.142.142 0 01.059.062l.004.008a.434.434 0 00.006.012l.002-.005a.06.06 0 00-.004-.026.175.175 0 00-.063-.078.221.221 0 00-.055-.028.985.985 0 00-.02-.008l-.04-.016a.446.446 0 01-.166-.132.504.504 0 00-.18-.135.468.468 0 01-.143-.099l-.499-.184.061-.148zm.45.314a.444.444 0 01-.026-.03l-.017.013.001.002-.44-.163.044-.105 1.23.564.002.001.006.004c.004.004.004.005.003.006m-.803-.292l.787.292a.048.048 0 00.01.002c.005 0 .006 0 .006-.002" fill="#85340A"/>
    <path d="M8.41 7.943c.135.122.264.106.366.237-.06-.124-.208-.12-.34-.26l-.026.023zm-.418-.251l.878.326-.852-.39" fill="#85340A"/>
    <path d="M8.008 7.724l1.363-.052s.025 0 .026-.017c0-.017-.026-.017-.026-.017l-1.363-.051v.137zm.44.06c.172.078.312.011.462.09.15.078.273.029.341.034.07.005.088.062.104.047.016-.014-.015-.073-.107-.096-.091-.022-.144.032-.327-.062-.184-.094-.267-.02-.43-.114" fill="#F6B40E"/>
    <path fill-rule="evenodd" clip-rule="evenodd" d="M7.996 7.575l1.375.052h.001a.057.057 0 01.015.003c.008.002.02.01.02.025 0 .016-.012.023-.02.026a.054.054 0 01-.016.002l-.784.03c.04.01.075.014.112.017H8.7c.064.005.132.01.226.057a.425.425 0 00.235.056h.023a.226.226 0 01.167.06.095.095 0 01.018.032c.002.01.002.021-.006.029a.02.02 0 01-.015.005.027.027 0 01-.012-.005.094.094 0 01-.01-.007l-.003-.003a.449.449 0 00-.007-.006.11.11 0 00-.065-.029.34.34 0 00-.065.004.897.897 0 01-.075.006.404.404 0 01-.207-.046.476.476 0 00-.217-.043h-.002c-.074-.003-.154-.006-.242-.046l.01-.02c.083.038.16.041.234.044.076.003.15.005.228.046a.382.382 0 00.196.043c.026 0 .05-.003.072-.006h.006a.359.359 0 01.063-.004.13.13 0 01.078.034l.008.006a.27.27 0 00.01.009V7.94a.06.06 0 00-.014-.023.175.175 0 00-.089-.048.221.221 0 00-.06-.005h-.022c-.014 0-.029.002-.044.001a.446.446 0 01-.203-.059c-.09-.045-.154-.05-.218-.055a.468.468 0 01-.17-.037l-.532.02v-.16zm.536.118a.447.447 0 01-.036-.019l-.011.02h.002l-.468.018v-.114l1.352.051a.046.046 0 01.01.002c.004.002.004.003.004.004m-.853.038l.839-.032a.035.035 0 00.01-.001c.004-.002.004-.004.004-.005" fill="#85340A"/>
    <path d="M8.492 7.762c.17.061.284-.003.428.079-.103-.091-.237-.031-.413-.11l-.015.031zm-.483-.072l.936-.034-.936-.034" fill="#85340A"/>
    <path d="M8.027 7.715l1.24-.57s.024-.009.017-.025c-.007-.016-.03-.006-.03-.006l-1.28.474.053.127zm.43-.113c.189.007.292-.109.46-.094.17.015.264-.077.33-.099.065-.021.104.024.114.004.01-.019-.043-.061-.136-.047-.093.013-.12.084-.326.068-.206-.017-.254.084-.441.06" fill="#F6B40E"/>
    <path fill-rule="evenodd" clip-rule="evenodd" d="M7.96 7.582l1.29-.478h.001a.05.05 0 01.015-.004c.008 0 .022.001.028.016.006.015-.003.026-.009.031a.055.055 0 01-.012.008h-.001l-.714.328a.554.554 0 00.11-.027h.001c.061-.02.126-.042.23-.034a.425.425 0 00.24-.038l.02-.01a.243.243 0 01.065-.02.197.197 0 01.112.013.08.08 0 01.03.022c.005.008.01.019.005.03a.02.02 0 01-.012.01.027.027 0 01-.013 0 .095.095 0 01-.012-.004l-.004-.001-.009-.003a.11.11 0 00-.07-.001.34.34 0 00-.06.028.899.899 0 01-.066.035.404.404 0 01-.208.036.476.476 0 00-.218.043h-.001a.593.593 0 01-.241.051v-.022a.574.574 0 00.234-.05c.07-.026.14-.052.228-.044a.382.382 0 00.197-.035.88.88 0 00.065-.033l.005-.003a.36.36 0 01.057-.027.132.132 0 01.085 0l.01.004.003.001a.074.074 0 00.01.003.016.016 0 00-.003-.004.06.06 0 00-.021-.016.175.175 0 00-.1-.01.221.221 0 00-.059.018l-.02.009c-.012.005-.025.012-.04.017a.446.446 0 01-.21.024.504.504 0 00-.222.031h-.001a.468.468 0 01-.17.032l-.484.222-.061-.148zm.54-.096a.445.445 0 01-.04-.004l-.004.022h.003l-.426.196-.044-.105 1.269-.47a.043.043 0 01.01-.003c.004 0 .005.001.006.002m-.774.362l.762-.35h.001a.033.033 0 00.008-.006c.004-.003.003-.005.003-.006" fill="#85340A"/>
    <path d="M8.489 7.565c.181-.009.261-.111.426-.091-.13-.044-.231.062-.424.056l-.002.035zm-.473.118l.851-.39-.878.327" fill="#85340A"/>
    <path d="M8.057 7.693l.928-1s.018-.018.006-.03c-.012-.012-.03.006-.03.006l-1 .927.096.097zm.354-.269c.177-.065.229-.212.39-.263.161-.05.214-.172.266-.217.052-.045.106-.018.107-.04.001-.021-.063-.04-.143.008-.081.048-.08.124-.276.188-.196.063-.202.174-.385.223" fill="#F6B40E"/>
    <path fill-rule="evenodd" clip-rule="evenodd" d="M7.944 7.596l1.01-.935V6.66a.057.057 0 01.012-.009c.008-.004.022-.008.033.004.011.01.007.025.003.032a.055.055 0 01-.008.012V6.7h-.001l-.534.576a.554.554 0 00.091-.068h.001c.049-.042.1-.087.2-.12a.424.424 0 00.177-.096l.03-.03.015-.017a.243.243 0 01.052-.043.197.197 0 01.109-.031c.014 0 .026.004.035.009.009.005.017.013.016.025a.02.02 0 01-.007.014.027.027 0 01-.012.005.095.095 0 01-.012.001H9.15l-.01.001a.11.11 0 00-.066.026.34.34 0 00-.039.045L9.031 7a.729.729 0 01-.048.057.404.404 0 01-.179.114.476.476 0 00-.184.123h-.001a.594.594 0 01-.204.14l-.007-.021a.574.574 0 00.196-.135.496.496 0 01.194-.128.382.382 0 00.169-.108l.047-.056.004-.004a.36.36 0 01.042-.047.132.132 0 01.089-.033.38.38 0 00.013 0c0-.002-.002-.003-.004-.004a.06.06 0 00-.026-.006.175.175 0 00-.096.028.221.221 0 00-.047.04l-.015.015a.446.446 0 01-.216.134c-.095.03-.144.073-.192.114l-.001.001a.468.468 0 01-.146.094l-.362.39-.113-.113zm.462-.296a.443.443 0 01-.039.013l.006.021h.003l-.32.343-.08-.08.992-.92.001-.001a.033.033 0 01.007-.005c.005-.002.006-.001.007 0m-.577.63l.57-.616h.001l.002-.002a.033.033 0 00.004-.006c.002-.004 0-.006 0-.007" fill="#85340A"/>
    <path d="M8.427 7.378c.164-.078.198-.203.359-.248-.138.01-.19.147-.37.215l.01.033zm-.392.29l.637-.686-.686.638" fill="#85340A"/>
    <path d="M8.062 7.666l.474-1.279s.01-.023-.006-.03c-.015-.006-.025.017-.025.017l-.57 1.24.127.052zm.225-.383c.138-.129.13-.284.259-.392.13-.109.132-.242.163-.303.03-.061.09-.058.083-.078-.007-.02-.073-.013-.13.062-.056.076-.025.145-.182.28-.157.133-.12.238-.27.353" fill="#F6B40E"/>
    <path fill-rule="evenodd" clip-rule="evenodd" d="M7.92 7.62l.575-1.25v-.001a.056.056 0 01.008-.013c.006-.006.017-.015.032-.01.014.007.016.021.015.03a.055.055 0 01-.003.014v.001l-.273.736a.553.553 0 00.058-.097v-.001c.03-.057.06-.118.14-.186a.424.424 0 00.127-.158l.015-.038.008-.022a.243.243 0 01.032-.06.197.197 0 01.088-.07.081.081 0 01.036-.005.03.03 0 01.025.017.02.02 0 01-.001.015.027.027 0 01-.01.01.095.095 0 01-.014.007.434.434 0 00-.008.005.11.11 0 00-.051.05.34.34 0 00-.022.06 1.11 1.11 0 01-.022.072.404.404 0 01-.122.173.476.476 0 00-.124.185.584.584 0 01-.135.207l-.015-.016a.574.574 0 00.13-.2.496.496 0 01.13-.193.382.382 0 00.115-.164c.01-.025.016-.048.022-.07l.002-.005a.358.358 0 01.02-.06.132.132 0 01.07-.064l.004-.001a.075.075 0 00.008-.005l-.005-.001a.06.06 0 00-.026.004.175.175 0 00-.078.063.222.222 0 00-.028.054.985.985 0 00-.008.02l-.016.041a.446.446 0 01-.132.166.504.504 0 00-.135.18.468.468 0 01-.099.143l-.184.498-.148-.06zm.314-.45a.447.447 0 01-.03.026l.013.018.002-.002-.163.44-.105-.044.564-1.23a.04.04 0 01.005-.007c.004-.004.005-.004.006-.004m-.292.803l.292-.787a.034.034 0 00.002-.009c0-.005 0-.006-.002-.007" fill="#85340A"/>
    <path d="M8.283 7.234c.122-.134.106-.264.237-.366-.124.061-.12.208-.26.34l.023.026zm-.251.418l.326-.878-.39.852" fill="#85340A"/>
    <path d="M8.074 7.639l-.052-1.363s0-.026-.017-.026-.017.026-.017.026l-.051 1.363h.137zm.06-.44c.079-.172.011-.312.09-.462.078-.15.029-.273.034-.342.005-.069.062-.088.048-.104-.015-.016-.073.016-.096.107-.023.091.031.144-.063.328-.094.183-.019.266-.113.43" fill="#F6B40E"/>
    <path fill-rule="evenodd" clip-rule="evenodd" d="M7.925 7.65l.052-1.375v-.001a.052.052 0 01.003-.015c.002-.008.01-.02.025-.02.016 0 .023.012.026.02a.054.054 0 01.002.015v.001l.03.784a.554.554 0 00.017-.112c.005-.065.01-.133.057-.226a.424.424 0 00.056-.236v-.023a.231.231 0 01.006-.067.197.197 0 01.054-.099.081.081 0 01.032-.018c.01-.003.021-.003.029.006a.02.02 0 01.005.014c0 .005-.003.01-.005.013a.094.094 0 01-.01.013.369.369 0 00-.006.006.11.11 0 00-.029.066.34.34 0 00.004.065.897.897 0 01.006.074.404.404 0 01-.046.207.476.476 0 00-.043.218c-.003.076-.006.155-.046.243l-.02-.01a.574.574 0 00.044-.234.496.496 0 01.046-.227.382.382 0 00.043-.196.539.539 0 00-.006-.073v-.005a.36.36 0 01-.004-.064.132.132 0 01.034-.078l.006-.007a.406.406 0 00.009-.01H8.29a.06.06 0 00-.023.014.175.175 0 00-.048.088.221.221 0 00-.005.06v.022a.446.446 0 01-.058.247c-.045.09-.05.155-.055.218v.001a.468.468 0 01-.037.17l.02.53h-.16zm.118-.536a.441.441 0 01-.02.036l.02.012.001-.003.018.469h-.114L8 6.276v-.001a.035.035 0 01.002-.009c.002-.005.003-.005.004-.005m.038.853l-.032-.838v-.001a.034.034 0 00-.001-.009c-.002-.005-.004-.005-.005-.005" fill="#85340A"/>
    <path d="M8.112 7.155c.061-.171-.003-.284.079-.43-.09.105-.031.239-.11.415l.031.015zm-.072.482l-.034-.936-.034.936" fill="#85340A"/>
    <path d="M8.055 7.626l-.57-1.24s-.01-.024-.025-.017c-.016.007-.006.03-.006.03l.474 1.28.127-.053zm-.113-.43c.007-.189-.109-.292-.094-.46.015-.17-.077-.264-.099-.33-.021-.065.024-.104.004-.114-.019-.01-.061.043-.047.136.013.093.084.12.067.326-.016.206.085.254.06.441" fill="#F6B40E"/>
    <path fill-rule="evenodd" clip-rule="evenodd" d="M7.922 7.693l-.478-1.29v-.001a.061.061 0 01-.004-.015c0-.008.001-.022.016-.028.015-.006.026.003.031.009a.054.054 0 01.008.012v.001l.328.714a.554.554 0 00-.027-.11v-.001a.525.525 0 01-.034-.23.424.424 0 00-.021-.201l-.017-.038-.01-.021a.243.243 0 01-.02-.065.197.197 0 01.013-.112.081.081 0 01.022-.03c.008-.005.019-.01.03-.005a.02.02 0 01.01.012.027.027 0 010 .013.093.093 0 01-.004.012l-.001.004a.39.39 0 00-.003.009.11.11 0 00-.001.07.34.34 0 00.026.054l.002.005.035.067a.404.404 0 01.036.208.476.476 0 00.043.218v.001c.027.07.055.145.051.241h-.022a.574.574 0 00-.05-.234.496.496 0 01-.044-.228.382.382 0 00-.035-.197.561.561 0 00-.033-.065l-.003-.005a.36.36 0 01-.027-.057.132.132 0 010-.085l.004-.01.001-.003a.075.075 0 00.003-.01.017.017 0 00-.004.003.06.06 0 00-.016.021.175.175 0 00-.01.1c.003.022.01.04.018.059a.967.967 0 00.026.06.446.446 0 01.024.21c-.009.1.012.162.031.222v.001c.017.05.034.1.032.17l.222.484-.148.061zm-.096-.54a.441.441 0 01-.004.04l.022.004v-.003l.196.426-.105.044-.47-1.269a.032.032 0 01-.003-.01c0-.004.001-.005.002-.006m.362.774l-.35-.762V6.39a.04.04 0 00-.006-.008c-.003-.004-.005-.003-.006-.003" fill="#85340A"/>
    <path d="M7.905 7.164c-.009-.181-.111-.261-.091-.426-.044.13.062.231.056.424l.035.002zm.118.473l-.39-.851.327.877" fill="#85340A"/>
    <path d="M8.043 7.61l-1-.928s-.018-.019-.03-.007c-.012.013.006.03.006.03l.927 1 .097-.096zm-.269-.355c-.065-.177-.212-.228-.263-.39-.05-.161-.172-.214-.217-.266-.045-.052-.018-.105-.04-.107-.021 0-.04.063.008.144.048.08.124.08.188.275.063.197.174.203.223.385" fill="#F6B40E"/>
    <path fill-rule="evenodd" clip-rule="evenodd" d="M7.946 7.722l-.935-1.009a.015.015 0 01-.001 0A.064.064 0 017 6.7a.026.026 0 01.004-.032c.011-.012.025-.008.032-.004a.055.055 0 01.013.009l.576.534a.554.554 0 00-.068-.09v-.002c-.042-.049-.087-.1-.119-.2a.424.424 0 00-.127-.206l-.017-.016a.243.243 0 01-.043-.052.197.197 0 01-.031-.108c0-.014.004-.027.009-.036.005-.008.013-.016.025-.016a.02.02 0 01.014.007.027.027 0 01.005.012.093.093 0 01.002.017v.009a.11.11 0 00.027.066.34.34 0 00.044.04l.004.003.057.048a.4.4 0 01.114.18.477.477 0 00.123.184h.001a.593.593 0 01.139.204l-.021.008a.574.574 0 00-.135-.197.496.496 0 01-.128-.193.382.382 0 00-.108-.17.882.882 0 00-.056-.047l-.004-.003a.36.36 0 01-.047-.043.132.132 0 01-.032-.088v-.004l-.002-.01-.003.004a.06.06 0 00-.006.026.175.175 0 00.029.096.222.222 0 00.038.047l.016.015.032.03a.45.45 0 01.102.186.49.49 0 00.115.193c.035.041.07.081.094.146l.39.362-.113.113zM7.65 7.26a.442.442 0 01.013.04l.021-.007v-.002l.343.318-.08.08-.92-.991-.002-.002a.033.033 0 01-.004-.006c-.002-.005-.001-.006 0-.007m.63.577l-.616-.57v-.001a.033.033 0 00-.008-.005c-.004-.002-.006-.002-.006 0" fill="#85340A"/>
    <path d="M7.728 7.24c-.077-.164-.203-.199-.247-.36.009.138.146.191.214.371l.033-.011zm.29.392l-.686-.638.638.686" fill="#85340A"/>
    <path d="M8.006 7.582l-1.279-.474s-.023-.01-.03.006c-.007.016.017.026.017.026l1.24.569.052-.127zm-.384-.224c-.128-.138-.283-.13-.392-.26-.108-.13-.24-.131-.302-.162s-.058-.09-.078-.084c-.02.007-.013.074.062.13.076.056.145.026.279.183.134.157.239.12.354.27" fill="#F6B40E"/>
    <path fill-rule="evenodd" clip-rule="evenodd" d="M7.96 7.724L6.71 7.15h-.001a.061.061 0 01-.013-.009c-.006-.005-.015-.017-.01-.031.007-.015.021-.017.03-.016a.054.054 0 01.014.003h.001l.736.273a.553.553 0 00-.097-.058h-.001a.525.525 0 01-.186-.14.425.425 0 00-.158-.126l-.038-.016a.243.243 0 01-.08-.04.197.197 0 01-.072-.088.081.081 0 01-.005-.036c0-.01.006-.02.016-.024a.02.02 0 01.016 0 .027.027 0 01.01.01.095.095 0 01.007.015l.004.008a.11.11 0 00.05.05.34.34 0 00.056.02l.005.002a.897.897 0 01.072.023.404.404 0 01.173.121.476.476 0 00.185.124c.069.032.141.065.207.135l-.017.015c-.062-.067-.131-.098-.2-.13a.496.496 0 01-.192-.13.382.382 0 00-.164-.114.878.878 0 00-.07-.023l-.005-.001a.36.36 0 01-.06-.021.132.132 0 01-.06-.061c0-.003-.002-.006-.004-.009l-.002-.004a.074.074 0 00-.004-.008l-.001.005a.055.055 0 00.004.026.175.175 0 00.063.078.221.221 0 00.054.029.947.947 0 00.061.023c.045.02.098.053.165.133a.504.504 0 00.18.134.468.468 0 01.144.099l.498.185-.061.148zm-.45-.314l.026.031.018-.013-.002-.002.44.163-.044.105-1.23-.565a.051.051 0 01-.008-.005c-.003-.003-.003-.005-.003-.006m.803.292l-.787-.292a.035.035 0 00-.01-.002c-.004 0-.005.001-.006.002" fill="#85340A"/>
    <path d="M7.574 7.361c-.134-.121-.264-.106-.366-.236.06.123.208.12.34.26l.026-.024zm.418.252l-.878-.327.852.39" fill="#85340A"/>
    <path d="M7.979 7.589l-1.364.051s-.025 0-.025.017.025.017.025.017l1.364.052v-.137zm-.44-.06c-.172-.079-.312-.012-.462-.09-.15-.078-.273-.03-.342-.035-.069-.005-.088-.061-.104-.047-.016.014.016.073.107.096.091.023.144-.032.328.062.183.094.266.02.43.114" fill="#F6B40E"/>
    <path fill-rule="evenodd" clip-rule="evenodd" d="M7.99 7.737l-1.375-.052h-.001a.067.067 0 01-.015-.002c-.008-.003-.02-.01-.02-.026s.012-.023.02-.025a.055.055 0 01.015-.003h.001l.784-.03a.553.553 0 00-.112-.016.525.525 0 01-.226-.058.424.424 0 00-.259-.055c-.02 0-.042 0-.067-.006a.196.196 0 01-.099-.055.081.081 0 01-.018-.031c-.003-.01-.003-.022.006-.03a.02.02 0 01.014-.004c.005 0 .01.002.013.004a.097.097 0 01.013.01l.006.007a.11.11 0 00.066.028.34.34 0 00.065-.004c.022-.002.047-.005.074-.006.06-.002.13.006.207.046.072.038.142.04.218.044a.593.593 0 01.243.045l-.01.02c-.083-.038-.159-.04-.234-.043a.496.496 0 01-.227-.046.382.382 0 00-.196-.044c-.027.001-.05.004-.073.006h-.005a.358.358 0 01-.064.004.132.132 0 01-.085-.04.413.413 0 00-.01-.008v.005a.06.06 0 00.014.022.175.175 0 00.088.048.25.25 0 00.06.006h.022a.446.446 0 01.247.058c.09.045.155.05.218.055h.001a.468.468 0 01.17.036l.53-.02v.16zm-.536-.117a.444.444 0 01.036.019l.012-.02-.003-.001.469-.018v.114l-1.352-.05h-.001a.046.046 0 01-.009-.002c-.005-.002-.005-.004-.005-.005m.853-.037l-.838.031h-.003l-.007.002c-.005.001-.005.003-.005.004" fill="#85340A"/>
    <path d="M7.495 7.55c-.171-.06-.284.003-.43-.078.104.09.239.03.414.11l.016-.032zm.482.072l-.936.035.936.034" fill="#85340A"/>
    <path d="M7.966 7.595l-1.24.569s-.024.01-.017.026c.006.015.03.006.03.006l1.28-.475-.053-.126zm-.43.113c-.189-.007-.292.109-.46.094-.17-.016-.264.077-.33.098-.065.022-.104-.023-.114-.004-.01.02.043.062.136.048.093-.014.12-.084.326-.068.206.017.254-.084.441-.06" fill="#F6B40E"/>
    <path fill-rule="evenodd" clip-rule="evenodd" d="M8.033 7.728l-1.29.478h-.001a.061.061 0 01-.015.004c-.008 0-.022-.001-.028-.016-.006-.015.003-.026.009-.031a.054.054 0 01.012-.009h.001l.714-.327a.554.554 0 00-.11.027h-.001a.525.525 0 01-.23.033.424.424 0 00-.201.022l-.038.017-.021.01a.243.243 0 01-.065.02.197.197 0 01-.112-.013.081.081 0 01-.03-.022c-.005-.008-.01-.019-.005-.03a.02.02 0 01.012-.01.027.027 0 01.013 0l.012.003.004.002a.39.39 0 00.008.003.11.11 0 00.072 0 .34.34 0 00.053-.025c.002 0 .003-.002.005-.003.02-.01.042-.023.067-.034a.404.404 0 01.208-.036.476.476 0 00.218-.044h.001c.07-.026.145-.054.241-.05v.022a.574.574 0 00-.234.05.496.496 0 01-.228.044.382.382 0 00-.197.034.773.773 0 00-.065.034c-.002 0-.003.002-.005.003a.358.358 0 01-.057.027.132.132 0 01-.085-.001l-.01-.003-.003-.002a.075.075 0 00-.01-.002l.003.004a.06.06 0 00.021.016c.021.01.055.017.1.01a.222.222 0 00.059-.018.967.967 0 00.06-.027.446.446 0 01.21-.023c.1.008.162-.012.222-.032h.001c.05-.017.1-.033.17-.031l.484-.222.061.148zm-.54.096c.013 0 .026.002.04.004l.004-.022h-.003l.426-.196.044.105-1.269.47a.032.032 0 01-.01.002c-.004 0-.005 0-.006-.002m.774-.36l-.762.35H6.73a.04.04 0 00-.008.004c-.004.004-.003.005-.003.006" fill="#85340A"/>
    <path d="M7.504 7.744c-.181.01-.261.112-.426.092.13.044.231-.063.424-.056l.002-.036zm.473-.117l-.851.39.877-.327" fill="#85340A"/>
    <path d="M7.94 7.61l-.928 1s-.018.018-.006.03c.012.012.03-.006.03-.006l1-.928-.097-.097zm-.355.268c-.177.066-.228.213-.39.263-.16.05-.213.172-.266.217-.052.045-.105.019-.107.04 0 .022.063.04.144-.008.08-.048.08-.124.276-.187s.202-.175.384-.224" fill="#F6B40E"/>
    <path fill-rule="evenodd" clip-rule="evenodd" d="M8.052 7.707l-1.009.935a.064.064 0 01-.013.01c-.007.003-.021.007-.032-.004-.012-.011-.008-.025-.004-.033a.055.055 0 01.009-.012v-.001l.534-.575a.554.554 0 00-.09.067l-.002.001a.525.525 0 01-.2.119.424.424 0 00-.206.127l-.016.017a.243.243 0 01-.051.042.197.197 0 01-.11.032.081.081 0 01-.035-.01c-.008-.004-.016-.013-.016-.024a.02.02 0 01.007-.014.027.027 0 01.012-.005.095.095 0 01.012-.002h.005a.36.36 0 00.009 0 .11.11 0 00.066-.027.34.34 0 00.04-.044c0-.002.002-.003.003-.005l.048-.057a.404.404 0 01.18-.113.476.476 0 00.184-.124.593.593 0 01.204-.14l.008.022a.564.564 0 00-.197.135c-.055.05-.11.102-.193.128a.382.382 0 00-.17.108.882.882 0 00-.047.055c0 .002-.002.003-.003.005a.36.36 0 01-.043.047.132.132 0 01-.088.032.395.395 0 00-.013.001l.003.003a.06.06 0 00.026.007.175.175 0 00.096-.029.222.222 0 00.047-.039l.015-.016.03-.032a.446.446 0 01.186-.102c.096-.03.145-.073.193-.114a.468.468 0 01.146-.095l.362-.39.113.114zm-.462.295a.445.445 0 01.04-.012l-.007-.022-.002.001.319-.343.08.08-.992.92a.037.037 0 01-.008.006c-.004.002-.006 0-.007 0m.577-.63l-.57.615-.001.001a.033.033 0 00-.005.007c-.002.005-.001.006 0 .007" fill="#85340A"/>
    <path d="M7.57 7.924c-.164.078-.199.204-.36.248.138-.009.19-.146.371-.214l-.011-.034zm.392-.29l-.638.686.686-.637" fill="#85340A"/>
    <path d="M7.922 7.638l-.474 1.28s-.01.023.006.03c.016.006.025-.018.025-.018l.57-1.24-.127-.052zm-.224.384c-.138.128-.13.284-.26.392-.13.108-.131.241-.162.303-.031.061-.09.057-.084.077.007.02.074.014.13-.062.056-.075.026-.145.183-.278.157-.134.12-.24.27-.355" fill="#F6B40E"/>
    <path fill-rule="evenodd" clip-rule="evenodd" d="M8.064 7.684l-.574 1.25v.002a.061.061 0 01-.009.013c-.005.006-.017.015-.031.009-.015-.007-.017-.02-.016-.029a.055.055 0 01.003-.015v-.001l.273-.736a.553.553 0 00-.058.098.525.525 0 01-.14.187.424.424 0 00-.15.218.243.243 0 01-.031.059.196.196 0 01-.089.07.081.081 0 01-.036.006c-.01-.002-.02-.006-.024-.017a.02.02 0 010-.015.026.026 0 01.01-.01.094.094 0 01.015-.008l.008-.004a.11.11 0 00.05-.05.341.341 0 00.022-.061.9.9 0 01.023-.071.404.404 0 01.121-.174.476.476 0 00.124-.184V8.22c.032-.068.065-.14.135-.206l.015.016c-.067.063-.098.132-.13.2a.496.496 0 01-.13.192.382.382 0 00-.114.165.57.57 0 00-.023.07l-.001.005a.36.36 0 01-.021.06.132.132 0 01-.061.059l-.009.004a.443.443 0 00-.012.006l.005.002a.06.06 0 00.026-.004.175.175 0 00.078-.063.22.22 0 00.029-.055.947.947 0 00.007-.02l.016-.04a.446.446 0 01.133-.166.504.504 0 00.134-.18.468.468 0 01.099-.143l.185-.499.148.061zm-.314.45a.447.447 0 01.031-.026l-.013-.017-.002.001.163-.44.105.044-.565 1.23a.033.033 0 01-.005.008c-.003.004-.005.004-.006.003m.292-.803l-.292.787a.03.03 0 00-.002.01c0 .005.001.006.002.006" fill="#85340A"/>
    <path d="M7.701 8.07c-.121.135-.105.264-.236.367.123-.061.12-.208.26-.34L7.7 8.07zm.252-.418l-.327.878.39-.851" fill="#85340A"/>
    <path d="M7.925 7.666l.051 1.363s0 .026.018.026c.017 0 .017-.026.017-.026l.05-1.363h-.136zm-.06.44c-.079.172-.011.312-.09.462-.078.15-.03.273-.034.342-.006.069-.062.088-.048.104.015.016.073-.016.096-.107.023-.092-.032-.144.062-.328.094-.183.02-.266.114-.43" fill="#F6B40E"/>
    <path fill-rule="evenodd" clip-rule="evenodd" d="M8.073 7.655L8.022 9.03a.059.059 0 01-.003.016c-.003.007-.01.02-.025.02-.016 0-.023-.013-.026-.02a.054.054 0 01-.003-.016l-.03-.785a.553.553 0 00-.016.112v.002a.525.525 0 01-.058.225.424.424 0 00-.055.235v.024c0 .02 0 .042-.006.066a.197.197 0 01-.055.1.081.081 0 01-.031.018c-.01.003-.021.003-.029-.006a.02.02 0 01-.005-.015c0-.004.003-.009.005-.012a.094.094 0 01.007-.01l.003-.003.006-.007a.11.11 0 00.028-.065.34.34 0 00-.004-.065.897.897 0 01-.006-.074.404.404 0 01.046-.207.476.476 0 00.044-.218v-.001a.593.593 0 01.046-.242l.02.01c-.038.083-.041.159-.044.234-.003.075-.005.15-.046.227a.382.382 0 00-.043.196c0 .026.003.05.006.073v.005a.36.36 0 01.004.064.132.132 0 01-.034.078l-.006.007L7.709 9a.075.075 0 00-.006.007h.005a.06.06 0 00.023-.014.175.175 0 00.047-.088.221.221 0 00.006-.061v-.021a.446.446 0 01.058-.247c.045-.09.05-.155.055-.218v-.001a.468.468 0 01.037-.17l-.02-.531h.16zm-.117.536a.446.446 0 01.019-.037l-.02-.01v.001l-.018-.468h.113L8 9.03v.003l-.002.007c-.002.005-.003.005-.004.005m-.038-.853l.032.838a.046.046 0 00.001.01c.002.005.003.005.005.005" fill="#85340A"/>
    <path d="M7.886 8.15c-.06.17.004.284-.078.429.09-.104.03-.238.11-.414l-.032-.015zm.073-.482l.034.936.034-.936" fill="#85340A"/>
    <path d="M7.937 7.686l.569 1.24s.01.024.025.017c.016-.006.006-.03.006-.03l-.474-1.28-.126.053zm.113.43c-.007.189.109.293.093.461-.015.168.078.264.1.329.02.066-.024.105-.005.114.02.01.062-.042.048-.136-.014-.093-.084-.12-.068-.326.017-.206-.084-.253-.06-.441" fill="#F6B40E"/>
    <path fill-rule="evenodd" clip-rule="evenodd" d="M8.07 7.62l.478 1.29a.058.058 0 01.003.015c.001.008 0 .023-.015.029-.015.006-.026-.003-.032-.01a.055.055 0 01-.008-.012V8.93l-.328-.714c.005.04.016.075.028.11v.001c.02.062.042.127.033.231a.424.424 0 00.022.2.352.352 0 00.017.039l.01.02c.008.02.015.04.019.065a.197.197 0 01-.013.113.081.081 0 01-.021.029c-.008.006-.02.01-.03.005a.02.02 0 01-.01-.011.027.027 0 010-.014l.003-.011.002-.005a.39.39 0 00.002-.008.11.11 0 00.002-.071.34.34 0 00-.029-.059c-.01-.02-.023-.041-.034-.066a.404.404 0 01-.037-.209.476.476 0 00-.043-.218.593.593 0 01-.05-.242h.022a.574.574 0 00.049.234.51.51 0 01.045.228.382.382 0 00.034.198.745.745 0 00.034.064l.002.005a.36.36 0 01.028.058.132.132 0 01-.001.085l-.003.009L8.247 9a.073.073 0 00-.002.009.016.016 0 00.004-.003.06.06 0 00.015-.021.175.175 0 00.01-.1.221.221 0 00-.017-.058.967.967 0 00-.027-.06.446.446 0 01-.023-.21.504.504 0 00-.032-.223.469.469 0 01-.031-.171l-.222-.484.148-.06zm.096.54c0-.014.002-.027.004-.042l-.022-.002v.002l-.196-.426.105-.043.47 1.268a.034.034 0 01.002.01c0 .005 0 .006-.002.006m-.36-.774l.35.763a.051.051 0 00.004.008c.004.004.005.004.006.003" fill="#85340A"/>
    <path d="M8.086 8.148c.01.181.112.262.092.427.044-.13-.063-.232-.057-.425l-.035-.002zm-.118-.473l.39.852-.326-.878" fill="#85340A"/>
    <path d="M8 8.216a.556.556 0 100-1.112.556.556 0 000 1.112z" fill="#F6B40E"/>
    <path fill-rule="evenodd" clip-rule="evenodd" d="M8 7.12A.54.54 0 108 8.2a.54.54 0 000-1.08zm-.57.54a.57.57 0 111.14 0 .57.57 0 01-1.14 0z" fill="#85340A"/>
    <path d="M8.19 7.541a.11.11 0 00-.096.05c.043.04.137.043.201-.004a.147.147 0 00-.106-.046zm-.001.009c.037 0 .071.016.076.033-.043.047-.111.043-.154.009a.09.09 0 01.078-.042z" fill="#843511"/>
    <path d="M7.915 7.737a.039.039 0 10.039.06.081.081 0 00.046.012h.005a.081.081 0 00.046-.012c.007.01.019.016.032.016a.038.038 0 00.007-.076c.01.003.017.013.017.024a.026.026 0 01-.051.001.064.064 0 01-.053.035.064.064 0 01-.054-.035.026.026 0 01-.051-.001c0-.01.007-.02.017-.024zm.042.113c-.043 0-.06.04-.098.065.021-.009.038-.025.068-.043.03-.017.055.004.072.004.018 0 .043-.02.073-.004.03.018.048.034.07.043-.04-.026-.057-.064-.1-.064A.115.115 0 008 7.864a.114.114 0 00-.043-.013z" fill="#85340A"/>
    <path d="M7.942 7.901a.294.294 0 00-.07.014c.076-.017.093.009.127.009.035 0 .052-.026.129-.01-.086-.025-.103-.008-.128-.008-.017 0-.03-.006-.058-.005z" fill="#85340A"/>
    <path d="M7.875 7.914l-.016.001c.09.009.046.06.14.06H8c.094 0 .052-.051.141-.06-.094-.008-.064.047-.141.047-.073 0-.05-.048-.125-.048z" fill="#85340A"/>
    <path d="M8.077 8.053a.077.077 0 00-.154 0 .08.08 0 01.154 0zm-.422-.513c.098-.085.222-.098.29-.034a.167.167 0 01.032.072c.009.048-.006.1-.045.155.005 0 .013.004.018.008a.304.304 0 00.034-.195.276.276 0 00-.013-.048c-.094-.077-.222-.086-.316.042z" fill="#85340A"/>
    <path d="M7.808 7.515c.056 0 .069.013.094.034.026.021.039.017.043.021.004.005 0 .017-.008.013a.241.241 0 01-.052-.034c-.025-.021-.05-.021-.077-.021-.076 0-.12.064-.128.06-.008-.005.043-.073.128-.073z" fill="#85340A"/>
    <path d="M7.81 7.621a.038.038 0 100-.076.038.038 0 000 .076z" fill="#85340A"/>
    <path d="M7.706 7.609c.072.055.145.051.188.025.043-.025.043-.034.034-.034-.009 0-.017.009-.051.026-.034.017-.086.017-.171-.017z" fill="#85340A"/>
</svg>
