<svg xmlns="http://www.w3.org/2000/svg" viewBox="0 0 357.592 170.079" height="170.079" width="357.592">
    <defs>
        <clipPath id="samsung_pay_stacked_svg__a" clipPathUnits="userSpaceOnUse">
            <path d="M0 127.559h268.194V0H0z"/>
        </clipPath>
        <clipPath id="samsung_pay_stacked_svg__b" clipPathUnits="userSpaceOnUse">
            <path d="M0 127.559h268.194V0H0z"/>
        </clipPath>
    </defs>
    <g clip-path="url(#samsung_pay_stacked_svg__a)" transform="matrix(1.33333 0 0 -1.33333 0 170.079)">
        <path d="M97.382 47.715V34.671h5.043c3.928 0 6.596 2.909 6.596 6.546 0 3.588-2.668 6.498-6.596 6.498zm-6.595 6.11h12.123c7.323 0 12.753-5.625 12.753-12.608 0-7.031-5.43-12.657-12.802-12.657h-5.479V18.425h-6.595zm50.146-21.143c0 4.801-3.637 8.73-8.486 8.73-4.85 0-8.583-3.833-8.583-8.73 0-4.946 3.734-8.826 8.583-8.826s8.486 3.928 8.486 8.826m-23.52-.097c0 9.408 6.887 14.79 14.064 14.79 3.734 0 7.08-1.55 9.117-3.976v3.394h6.546V18.425h-6.546v3.686c-2.086-2.619-5.48-4.268-9.214-4.268-6.838 0-13.966 5.48-13.966 14.742m43.987-12.753l-11.638 26.962h6.983l7.904-19.106 7.468 19.106h6.886L162.08 5.333h-6.644z" fill="#231f20"/>
    </g>
    <g clip-path="url(#samsung_pay_stacked_svg__b)" transform="matrix(1.33333 0 0 -1.33333 0 170.079)">
        <path d="M238.07 93.571v-4.823h3.39v-4.786a6.043 6.043 0 00-.087-1.258c-.134-.892-.983-2.412-3.389-2.412-2.392 0-3.225 1.52-3.369 2.412-.06.37-.086.83-.086 1.258v15.115c0 .535.036 1.12.15 1.563.163.806.877 2.394 3.287 2.394 2.53 0 3.162-1.674 3.306-2.394.096-.476.101-1.276.101-1.276V97.53h8.33v1.085s.037 1.132-.064 2.19c-.626 6.203-5.737 8.165-11.599 8.165-5.87 0-10.88-1.98-11.61-8.166-.065-.566-.166-1.584-.166-2.189V84.71c0-.606.02-1.075.132-2.18.543-6.035 5.773-8.173 11.621-8.173 5.885 0 11.077 2.138 11.63 8.172.098 1.106.11 1.575.121 2.181v8.861zm-57.43 14.51h-8.365V83.612c.013-.426 0-.905-.073-1.256-.175-.822-.87-2.402-3.179-2.402-2.277 0-2.992 1.58-3.153 2.402-.084.351-.094.83-.084 1.256v24.467h-8.362V84.372c-.01-.61.038-1.859.074-2.186.577-6.178 5.446-8.183 11.525-8.183 6.092 0 10.958 2.005 11.545 8.183.047.327.107 1.575.071 2.186zm-76.853 0l-4.173-25.854-4.17 25.853H81.952l-.715-33.073h8.266l.223 30.617 5.687-30.617h8.386l5.693 30.617.224-30.617h8.288l-.74 33.073zm-49.955 0l-6.126-33.074h8.933l4.617 30.617 4.506-30.617h8.871l-6.1 33.073zm156.04-26.629l-7.789 26.628H189.81V75.352h8.12l-.472 27.48 8.364-27.48h11.771v32.728h-8.17zm-75.099 18.02a4.436 4.436 0 00-.028 1.71c.236 1.06.948 2.214 2.997 2.214 1.91 0 3.03-1.19 3.03-2.978v-2.022h8.153v2.305c0 7.125-6.388 8.245-11.013 8.245-5.826 0-10.583-1.92-11.452-7.282-.23-1.459-.287-2.755.078-4.407 1.417-6.686 13.056-8.625 14.745-12.853.3-.8.213-1.823.06-2.424-.252-1.1-.992-2.207-3.186-2.207-2.059 0-3.297 1.182-3.297 2.966l-.003 3.174h-8.776V83.39c0-7.31 5.726-9.517 11.893-9.517 5.908 0 10.786 2.02 11.57 7.49.372 2.828.09 4.67-.059 5.362-1.368 6.858-13.772 8.92-14.712 12.747m-107.558.082c-.16.666-.123 1.37-.033 1.737.226 1.053.941 2.23 3.027 2.23 1.934 0 3.073-1.203 3.073-3.005V98.47h8.25v2.323c0 7.195-6.487 8.342-11.163 8.342-5.875 0-10.675-1.95-11.553-7.35-.24-1.484-.28-2.788.066-4.459 1.432-6.762 13.186-8.717 14.896-12.995.32-.796.224-1.817.064-2.442-.27-1.112-1.017-2.234-3.229-2.234-2.066 0-3.302 1.203-3.302 3.011l-.012 3.182h-8.874V83.32c0-7.395 5.807-9.619 12.022-9.619 5.976 0 10.883 2.037 11.684 7.572.397 2.853.1 4.71-.035 5.413-1.396 6.942-13.94 8.997-14.88 12.87" fill="#231f20"/>
    </g>
</svg>
