<svg xmlns="http://www.w3.org/2000/svg" viewBox="0 0 83.7 40">
    <style/>
    <path d="M28.3 23.1h3.8c2.3 0 4 1.8 4 3.9 0 2.2-1.7 3.9-4 3.9h-1.7v3.2h-2.1v-11zm2.1 1.9v4.1H32c1.2 0 2.1-.9 2.1-2s-.8-2-2.1-2h-1.6zm6.2 4.7c0-2.9 2.1-4.6 4.4-4.6 1.2 0 2.2.5 2.8 1.2v-1.1h2V34h-2v-1c-.7.8-1.7 1.3-2.9 1.3-2 0-4.3-1.7-4.3-4.6zm7.4 0c0-1.5-1.1-2.7-2.6-2.7s-2.7 1.2-2.7 2.7c0 1.5 1.2 2.8 2.7 2.8 1.4 0 2.6-1.3 2.6-2.8zm6.4 4l-3.6-8.4H49l2.5 6 2.3-6h2.1l-5.3 12.9h-2.1l1.9-4.5zM8.5 8.8v-.5c.1-.3.3-.7.9-.7.6 0 1 .4 1 .9v.6H13v-.6c0-2.2-2-2.6-3.5-2.6-1.8 0-3.3.6-3.6 2.3-.1.4-.1.8 0 1.3.4 2.1 4.1 2.7 4.6 4.1.1.2.1.6 0 .8-.1.3-.3.7-1 .7-.6 0-1-.4-1-.9v-1H5.7v.8c0 2.3 1.8 3 3.8 3 1.9 0 3.4-.6 3.6-2.4.1-.9 0-1.5 0-1.7-.4-2.2-4.3-2.9-4.6-4.1zm33.5.1v-.5c.1-.4.3-.8 1-.8.6 0 .9.4.9.9v.6h2.5v-.6c0-2.2-2-2.6-3.4-2.6-1.8 0-3.3.6-3.6 2.3-.1.5-.1.9 0 1.4.4 2.1 4.1 2.7 4.6 4 .1.2.1.6 0 .8-.1.3-.3.7-1 .7-.6 0-1-.4-1-.9v-1h-2.7v.8c0 2.3 1.8 3 3.7 3 1.8 0 3.4-.6 3.6-2.3.1-.9 0-1.5 0-1.7-.4-2.3-4.3-2.9-4.6-4.1zm23.5 5.6L63 6.2h-3.8v10.2h2.5l-.1-8.6 2.6 8.6h3.7V6.2h-2.5l.1 8.3zM16.8 6.2l-1.9 10.3h2.8l1.4-9.6 1.4 9.6h2.8L21.4 6.2h-4.6zm15.6 0l-1.3 8.1-1.3-8.1h-4.2l-.2 10.3H28V6.9l1.8 9.6h2.6l1.8-9.6.1 9.6h2.6l-.3-10.3h-4.2zm24 0h-2.6v8c-.1.3-.3.7-1 .7s-.9-.5-1-.7v-8h-2.6v8.1c.2 1.9 1.7 2.6 3.6 2.6 1.9 0 3.4-.6 3.6-2.6V6.2zm17.9 4.5v1.5h1.1v1.9c0 .3-.3.8-1.1.8-.7 0-1-.5-1.1-.8V8.5c.1-.3.3-.7 1-.7.8 0 1 .5 1 .7v1h2.6V8.4c-.2-1.9-1.8-2.5-3.6-2.5s-3.4.6-3.6 2.5c0 .2-.1.5-.1.7v5c.2 1.9 1.8 2.5 3.6 2.5s3.5-.7 3.6-2.5v-3.5h-3.4z" id="samsung_pay_large_svg__samsung_pay_svg__Service_Name"/>
</svg>
