<svg xmlns="http://www.w3.org/2000/svg" viewBox="0 0 513.057 96.378" height="96.378" width="513.057">
    <defs>
        <clipPath id="samsung_pay_horizontal_svg__a" clipPathUnits="userSpaceOnUse">
            <path d="M0 72.283h384.793V0H0z"/>
        </clipPath>
        <clipPath id="samsung_pay_horizontal_svg__b" clipPathUnits="userSpaceOnUse">
            <path d="M0 72.283h384.793V0H0z"/>
        </clipPath>
    </defs>
    <g clip-path="url(#samsung_pay_horizontal_svg__a)" transform="matrix(1.33333 0 0 -1.33333 0 96.378)">
        <path d="M284.748 47.715V34.671h5.043c3.928 0 6.595 2.909 6.595 6.546 0 3.588-2.667 6.498-6.595 6.498zm-6.595 6.11h12.122c7.322 0 12.753-5.625 12.753-12.608 0-7.031-5.43-12.657-12.802-12.657h-5.479V18.425h-6.595zm50.145-21.143c0 4.801-3.637 8.73-8.486 8.73s-8.583-3.833-8.583-8.73c0-4.946 3.734-8.826 8.583-8.826 4.85 0 8.486 3.928 8.486 8.826m-23.519-.097c0 9.408 6.886 14.79 14.063 14.79 3.734 0 7.08-1.55 9.117-3.976v3.394h6.546V18.425h-6.546v3.686c-2.086-2.619-5.48-4.268-9.214-4.268-6.838 0-13.966 5.48-13.966 14.742m43.988-12.753l-11.638 26.962h6.983l7.904-19.106 7.468 19.106h6.887L349.447 5.333h-6.644z" fill="#231f20"/>
    </g>
    <g clip-path="url(#samsung_pay_horizontal_svg__b)" transform="matrix(1.33333 0 0 -1.33333 0 96.378)">
        <path d="M238.07 38.295v-4.823h3.39v-4.786a6.048 6.048 0 00-.087-1.258c-.134-.892-.982-2.412-3.388-2.412-2.392 0-3.225 1.52-3.37 2.412-.06.37-.086.831-.086 1.258v15.116c0 .535.036 1.12.15 1.562.164.806.878 2.394 3.288 2.394 2.53 0 3.161-1.674 3.306-2.394.095-.476.1-1.276.1-1.276v-1.835h8.33v1.085s.037 1.133-.064 2.19c-.626 6.203-5.737 8.165-11.599 8.165-5.87 0-10.88-1.98-11.609-8.166-.066-.565-.167-1.583-.167-2.189V29.434c0-.606.02-1.075.132-2.18.544-6.035 5.773-8.173 11.621-8.173 5.885 0 11.077 2.138 11.63 8.172a26.64 26.64 0 01.122 2.181v8.861zm-57.43 14.51h-8.364V28.336c.012-.426 0-.905-.074-1.256-.174-.822-.87-2.402-3.178-2.402-2.278 0-2.993 1.58-3.154 2.402-.084.351-.094.83-.084 1.256v24.467h-8.362V29.097c-.01-.61.038-1.86.074-2.187.577-6.177 5.446-8.183 11.526-8.183 6.091 0 10.957 2.006 11.545 8.183.046.327.106 1.576.071 2.187zm-76.853 0l-4.173-25.853-4.169 25.852H81.952l-.715-33.072h8.266l.223 30.616 5.687-30.616h8.387l5.692 30.616.225-30.616h8.287l-.74 33.072zm-49.955 0l-6.126-33.073h8.934l4.617 30.616 4.505-30.616h8.872l-6.1 33.072zm156.04-26.628l-7.789 26.627H189.81V20.076h8.118l-.47 27.48 8.363-27.48h11.771v32.728h-8.17zm-75.098 18.02a4.42 4.42 0 00-.029 1.71c.237 1.059.948 2.214 2.997 2.214 1.911 0 3.03-1.192 3.03-2.979V43.12h8.154v2.306c0 7.125-6.389 8.244-11.014 8.244-5.826 0-10.583-1.92-11.452-7.282-.23-1.459-.287-2.754.078-4.407 1.417-6.686 13.056-8.625 14.745-12.853.3-.8.213-1.822.061-2.424-.253-1.1-.993-2.207-3.187-2.207-2.059 0-3.297 1.183-3.297 2.966l-.002 3.174h-8.777v-2.523c0-7.31 5.726-9.516 11.894-9.516 5.907 0 10.785 2.018 11.568 7.49.373 2.827.092 4.668-.058 5.362-1.368 6.857-13.772 8.92-14.71 12.747m-107.559.081c-.16.667-.123 1.372-.034 1.738.226 1.054.941 2.229 3.027 2.229 1.934 0 3.073-1.202 3.073-3.004v-2.048h8.25v2.325c0 7.193-6.487 8.34-11.163 8.34-5.875 0-10.674-1.95-11.553-7.35-.24-1.484-.28-2.788.066-4.459 1.432-6.76 13.187-8.715 14.897-12.994.32-.795.223-1.817.064-2.442-.272-1.112-1.018-2.234-3.23-2.234-2.066 0-3.302 1.204-3.302 3.01l-.012 3.183h-8.874v-2.528c0-7.394 5.807-9.618 12.023-9.618 5.975 0 10.882 2.037 11.683 7.57.398 2.853.1 4.71-.035 5.414-1.396 6.941-13.939 8.997-14.88 12.868" fill="#231f20"/>
    </g>
</svg>
